<?xml version="1.0" encoding="utf-8"?>
<!-- Generator: Adobe Illustrator 23.0.0, SVG Export Plug-In . SVG Version: 6.00 Build 0)  -->
<svg version="1.1" id="Tryb_izolacji" xmlns="http://www.w3.org/2000/svg" xmlns:xlink="http://www.w3.org/1999/xlink" x="0px"
	 y="0px" viewBox="0 0 100.6 100" enable-background="new 0 0 100.6 100" xml:space="preserve">
<g>
	<g>
		<g>
			<path fill="#009FE3" d="M77.5,100c-6.2,0-11.2-5-11.2-11.2c0-6.2,5-11.2,11.2-11.2c6.2,0,11.2,5,11.2,11.2
				C88.7,95,83.6,100,77.5,100z M77.5,84c-2.7,0-4.9,2.2-4.9,4.8c0,2.7,2.2,4.9,4.9,4.9c2.7,0,4.8-2.2,4.8-4.9
				C82.3,86.2,80.2,84,77.5,84z"/>
		</g>
	</g>
	<path fill-rule="evenodd" clip-rule="evenodd" fill="#009FE3" d="M47.5,89.4c0,1.5-0.4,2.5-1.2,3.2c-0.9,0.8-2.4,0.8-3.6,0.6
		c0,0-3.1-0.3-6.9-1.7C18.3,85.2,6.5,68.7,6.5,50.3c0-24.2,19.7-43.8,43.8-43.8c24.2,0,43.8,19.7,43.8,43.8
		c0,12.5-5.4,24.3-14.5,32.6l4,5.1c10.7-9.4,17-23.1,17-37.7C100.6,22.6,78,0,50.3,0C22.6,0,0,22.6,0,50.3
		c0,21.1,13.5,40.2,33.7,47.5c4.5,1.6,8.1,2.1,8.3,2.1c0.7,0.1,1.3,0.1,1.9,0.1c3.4,0,5.6-1.3,6.9-2.4c2.1-1.9,3.3-4.8,3.3-8.2V74.2
		h-6.5V89.4z"/>
	<g>
		<g>
			<g>
				<path fill-rule="evenodd" clip-rule="evenodd" fill="#009FE3" d="M35,41.3c0,2.8,2.3,5.1,5.1,5.1c2.8,0,5.1-2.3,5.1-5.1
					c0-2.8-2.3-5.1-5.1-5.1C37.2,36.2,35,38.4,35,41.3z"/>
			</g>
		</g>
		<path fill="#009FE3" d="M68.5,38.7c0.3,0.8,0.4,1.7,0.4,2.6c0,1.5-0.4,2.8-1.1,4.1c1.4,0.6,2.1,1.8,2.1,3.6l0,1.5
			c0,10.8-8.6,19.2-19.6,19.3c-11-0.1-19.6-8.5-19.6-19.3l0-1.5c0-1.8,0.8-3,2.1-3.6c-0.7-1.2-1.1-2.6-1.1-4.1
			c0-0.9,0.2-1.7,0.4-2.6c-4.9,1-8,4.9-8,10.2v1.5c0,6.8,2.6,13.3,7.3,18.1c4.7,4.8,11.1,7.6,18,7.8l1.7,0v0l0.1,0
			c6.9-0.2,13.3-3,18-7.8c4.7-4.8,7.3-11.2,7.3-18l0-1.6C76.5,43.6,73.3,39.7,68.5,38.7z"/>
		<g>
			<g>
				<path fill-rule="evenodd" clip-rule="evenodd" fill="#009FE3" d="M65.6,41.3c0-2.8-2.3-5.1-5.1-5.1c-2.8,0-5.1,2.3-5.1,5.1
					c0,2.8,2.3,5.1,5.1,5.1C63.3,46.4,65.6,44.1,65.6,41.3z"/>
			</g>
		</g>
	</g>
</g>
</svg>
